<svg width="156" height="60" fill="none" xmlns="http://www.w3.org/2000/svg">
<rect x="3.5" y="3.5" width="82" height="53" rx="10.5" stroke="white" stroke-width="7"/>
<path d="M32.5742 35.5039C33.1992 35.5039 33.707 35.332 34.0977 34.9883C34.4883 34.6445 34.6914 34.1875 34.707 33.6172H37.8828C37.875 34.4766 37.6406 35.2656 37.1797 35.9844C36.7188 36.6953 36.0859 37.25 35.2812 37.6484C34.4844 38.0391 33.6016 38.2344 32.6328 38.2344C30.8203 38.2344 29.3906 37.6602 28.3438 36.5117C27.2969 35.3555 26.7734 33.7617 26.7734 31.7305V31.5078C26.7734 29.5547 27.293 27.9961 28.332 26.832C29.3711 25.668 30.7969 25.0859 32.6094 25.0859C34.1953 25.0859 35.4648 25.5391 36.418 26.4453C37.3789 27.3438 37.8672 28.543 37.8828 30.043H34.707C34.6914 29.3867 34.4883 28.8555 34.0977 28.4492C33.707 28.0352 33.1914 27.8281 32.5508 27.8281C31.7617 27.8281 31.1641 28.1172 30.7578 28.6953C30.3594 29.2656 30.1602 30.1953 30.1602 31.4844V31.8359C30.1602 33.1406 30.3594 34.0781 30.7578 34.6484C31.1562 35.2188 31.7617 35.5039 32.5742 35.5039ZM43.8711 22.2031V25.3203H46.0391V27.8047H43.8711V34.1328C43.8711 34.6016 43.9609 34.9375 44.1406 35.1406C44.3203 35.3438 44.6641 35.4453 45.1719 35.4453C45.5469 35.4453 45.8789 35.418 46.168 35.3633V37.9297C45.5039 38.1328 44.8203 38.2344 44.1172 38.2344C41.7422 38.2344 40.5312 37.0352 40.4844 34.6367V27.8047H38.6328V25.3203H40.4844V22.2031H43.8711ZM55.0508 28.4961C54.5898 28.4336 54.1836 28.4023 53.832 28.4023C52.5508 28.4023 51.7109 28.8359 51.3125 29.7031V38H47.9258V25.3203H51.125L51.2188 26.832C51.8984 25.668 52.8398 25.0859 54.043 25.0859C54.418 25.0859 54.7695 25.1367 55.0977 25.2383L55.0508 28.4961ZM60.2656 38H56.8672V20H60.2656V38Z" fill="white"/>
<rect x="99.5" y="3.5" width="53" height="53" rx="10.5" stroke="white" stroke-width="7"/>
<path d="M126.047 33.8633L128.402 25.3203H131.941L127.664 38H124.43L120.152 25.3203H123.691L126.047 33.8633Z" fill="white"/>
</svg>
