<svg width="197" height="40" fill="none" xmlns="http://www.w3.org/2000/svg">
<path d="M12.5312 31.2656C11.4844 31.2656 10.6172 31.0547 9.92969 30.6328C9.25781 30.2109 8.72656 29.6484 8.33594 28.9453C7.92969 28.2578 7.64844 27.4609 7.49219 26.5547C7.33594 25.6328 7.25781 24.6797 7.25781 23.6953V22.9922C7.25781 22.0234 7.33594 21.0859 7.49219 20.1797C7.66406 19.2734 7.95312 18.4688 8.35938 17.7656C8.75 17.0625 9.28125 16.5 9.95312 16.0781C10.625 15.6562 11.4766 15.4453 12.5078 15.4453C13.2109 15.4453 13.8594 15.5703 14.4531 15.8203C15.0469 16.0547 15.5547 16.375 15.9766 16.7812C16.3984 17.1875 16.7188 17.6719 16.9375 18.2344C17.1562 18.7969 17.25 19.3906 17.2188 20.0156H23.3594C23.3906 18.5156 23.1406 17.1641 22.6094 15.9609C22.0781 14.7422 21.3359 13.7031 20.3828 12.8438C19.4141 12 18.2656 11.3438 16.9375 10.875C15.6094 10.4062 14.1641 10.1719 12.6016 10.1719C10.6484 10.1719 8.92969 10.5078 7.44531 11.1797C5.97656 11.8516 4.74219 12.7656 3.74219 13.9219C2.74219 15.0781 1.99219 16.4375 1.49219 18C0.992188 19.5469 0.742188 21.2109 0.742188 22.9922V23.6953C0.742188 25.4766 0.992188 27.1484 1.49219 28.7109C2.00781 30.2578 2.76562 31.6094 3.76562 32.7656C4.75 33.9219 5.98438 34.8359 7.46875 35.5078C8.95312 36.1641 10.6797 36.4922 12.6484 36.4922C14.1016 36.4922 15.4766 36.2656 16.7734 35.8125C18.0859 35.3438 19.2344 34.7031 20.2188 33.8906C21.2031 33.0781 21.9766 32.1094 22.5391 30.9844C23.1172 29.8594 23.3906 28.6406 23.3594 27.3281H17.2188C17.25 27.9219 17.1406 28.4609 16.8906 28.9453C16.6562 29.4297 16.3203 29.8438 15.8828 30.1875C15.4453 30.5312 14.9375 30.7969 14.3594 30.9844C13.7812 31.1719 13.1719 31.2656 12.5312 31.2656ZM42.0859 4.42969H35.5703V10.6406H29.7812V15.4453H35.5703V26.9766C35.5703 28.6484 35.7891 30.0859 36.2266 31.2891C36.6641 32.4766 37.2891 33.4531 38.1016 34.2188C38.8984 35 39.8594 35.5781 40.9844 35.9531C42.125 36.3125 43.3906 36.4922 44.7812 36.4922C45.5 36.4922 46.2266 36.4531 46.9609 36.375C47.7109 36.3125 48.4297 36.2188 49.1172 36.0938C49.8047 35.9688 50.4531 35.8125 51.0625 35.625C51.6719 35.4219 52.2031 35.1875 52.6562 34.9219L52.0234 30.4453C51.7266 30.5234 51.3672 30.6016 50.9453 30.6797C50.5391 30.7578 50.1016 30.8281 49.6328 30.8906C49.1484 30.9688 48.6406 31.0312 48.1094 31.0781C47.5938 31.125 47.0859 31.1484 46.5859 31.1484C45.8984 31.1484 45.2734 31.0703 44.7109 30.9141C44.1641 30.7578 43.6953 30.4922 43.3047 30.1172C42.9141 29.7578 42.6094 29.2734 42.3906 28.6641C42.1875 28.0391 42.0859 27.2656 42.0859 26.3438V15.4453H51.5547V10.6406H42.0859V4.42969ZM77.1719 10.1719C75.4688 10.1719 73.8984 10.5859 72.4609 11.4141C71.0234 12.2266 69.7891 13.3516 68.7578 14.7891L68.7109 14.2266L68.4531 10.6406H62.3828V36H68.8984V20.7656C69.1953 20.0469 69.5703 19.4219 70.0234 18.8906C70.4766 18.3594 71.0234 17.9219 71.6641 17.5781C72.1953 17.2812 72.7969 17.0625 73.4688 16.9219C74.1562 16.7656 74.9219 16.6875 75.7656 16.6875C76.5781 16.6875 77.4297 16.7422 78.3203 16.8516C79.2266 16.9453 80.1094 17.0938 80.9688 17.2969L81.9297 10.8047C81.4141 10.6484 80.7344 10.5078 79.8906 10.3828C79.0625 10.2422 78.1562 10.1719 77.1719 10.1719ZM89.1484 0V5.32031H96.7422V30.7031H89.1484V36H110.594V30.7031H103.328V0H89.1484ZM129.953 17.6953V7.73438H125.617V17.6953H116.102V22.0078H125.617V32.5781H129.953V22.0078H139.492V17.6953H129.953ZM154.867 36H158.172L168.508 10.6406H164.078L156.977 29.7656L156.555 31.3359L156.156 29.7656L148.891 10.6406H144.438L154.867 36ZM196.094 39.5391V36H174.602V39.5391H196.094Z" fill="#D9D9D9"/>
</svg>
